<?xml version="1.0" encoding="utf-8"?>
<!-- Generator: Adobe Illustrator 26.0.2, SVG Export Plug-In . SVG Version: 6.00 Build 0)  -->
<svg version="1.1" id="Layer_1" xmlns="http://www.w3.org/2000/svg" xmlns:xlink="http://www.w3.org/1999/xlink" x="0px" y="0px"
	 viewBox="0 0 393.3 141.9" style="enable-background:new 0 0 393.3 141.9;" xml:space="preserve">
<style type="text/css">
	.st0{enable-background:new    ;}
	.st1{fill:#5f0013;}
</style>
<g class="st0">
	<path class="st1" d="M93.5,103.2c0,0.1-0.1,0.3-0.1,0.4L83.3,117c-0.3,0.4-0.6,0.6-1,0.6c-0.3,0-0.4,0-0.6-0.1l-5.2-1.7
		c-0.1,0-0.3-0.1-0.4-0.1c-0.3-0.1-0.4-0.3-0.5-0.4l-8.3-7.8c-4.2,6.3-10.9,10.5-18.6,11.4c-2.9,0.3-6.1-0.4-9.2-1.9
		C24.4,114.8,6.6,90.8,5,62.5c-1.7-31.2,14.6-48.9,37-48.5c4.7,0.1,8.7,0.9,12,2.4c17.1,3.4,20.7,19.5,23.1,37.9
		c1.4,11.4,1,24.8-2,36.1L93,101.6c0.5,0.3,0.8,0.8,0.6,1.1C93.7,103,93.7,103.1,93.5,103.2z M7.6,62.2
		c1.1,20.8,10.9,38.1,21.1,46.6c-9.3-10-17-26.4-18-44.6c-1.4-27,10.5-43.8,28.1-47.6C19.8,17.8,6,33.7,7.6,62.2z M55.3,45.1
		c-1-5.5-2.3-10.7-6.4-13.3c-0.4-0.1-0.8-0.1-1.1-0.1c-12.6-0.5-25.7,14.4-22.4,34.5c2.7,16.1,9.6,28.1,16,32.6
		c3.3-0.3,7-1.5,8.7-4.5l0.1-0.1L44.7,85c-0.4-0.4-0.4-1-0.1-1.5c4-7.5,4.9-10.9,6.3-11c0.3,0,0.5,0,0.6,0l5.6,1.8
		c0.3,0.1,0.4,0.3,0.5,0.3C58.9,64.3,57.3,55.5,55.3,45.1z M52.4,95.6c-0.6,1-1.5,1.9-1.9,2.2c-0.9,1-2.7,2-4.7,2.8c0.3,0,0.6,0,1,0
		c3.2-0.1,6.8-1.3,8.7-4L52.4,95.6z M51.5,75.9l-4,7.4l3.1,1c1.4-2.6,2.4-4.6,3.1-6.3C53,77.4,52.3,76.5,51.5,75.9z M50.5,86.9
		l-1.9-0.5l4,6.6l1.9,0.5L50.5,86.9z M61,46.9c-1.1-5.7-2.4-11.2-7-13.7c0.6,0.9,1.1,1.9,1.7,3.1c2.3,5.6,2.8,12.1,4,18
		c1.3,6.6,1.5,15.2,0.4,22.5c0.8,0.8,1.7,1.7,2.8,2.8C64.8,68,63.1,58.3,61,46.9z M76.2,115.9l-0.1-0.1c0.1,0,0.3,0.1,0.4,0.1H76.2z
		 M81.8,117.7l-0.1-0.1c0.3,0.1,0.4,0.1,0.6,0.1C82.2,117.7,82,117.7,81.8,117.7z M93.4,103.5v0.1c0-0.1,0.1-0.3,0.1-0.4
		C93.5,103.3,93.5,103.3,93.4,103.5z"/>
	<path class="st1" d="M164.7,121.7h-12.8c-0.1,0-0.4,0-0.5,0c-0.4-0.1-0.6-0.3-0.8-0.5l-2-1.9c-3.8,1.5-8.2,2.4-13.4,2.4
		c-11,0-18.4-3.8-23.2-9.8C97.2,101.2,97,76.7,99.5,59.2c0.8-5.4,1.8-9.3,1.9-10.3c0.1-0.1,0.1-0.3,0.1-0.4c0.1-0.3,0.4-0.5,0.6-0.6
		s0.8-0.3,1.1,0l13.9,4.1c0.3,0,0.5,0.1,0.6,0.4l4.9,4.6c0.5,0.4,0.5,0.9,0.4,1.3c-0.1,0.6-0.5,2.9-0.9,6.3
		c-1.1,9.1-1.8,24.1,4.3,32.8c1.1,0.6,2.4,1.1,3.8,1.5c18.3,4.9,11.8-42.3,10.6-48.9c-0.3-0.8,0.4-1.7,1.1-1.7
		c3.4-1.2,13.2,0.6,16.1,0.9c0.4,0,0.8,0,1,0.4l4.9,4.6c0.4,0.3,0.5,0.8,0.5,1l1.5,65.1C166.3,121.1,165.5,121.9,164.7,121.7z
		 M104.4,63.8c0.6-4.7,1.5-8.3,1.9-9.8l-2.8-2.6c-1.5,7.7-6.1,34,2.8,50.2C102.4,89.8,102.7,75.2,104.4,63.8z M107.6,51.6l0.8,0.8
		l7.2,2.2l0.1-0.5L107.6,51.6z M144.1,52.9c1.7,12.3,5.7,52-13,48.7c1.3,0.8,2.7,1.4,4.2,1.8c18.1,4.9,11.9-41.3,10.6-48.7
		L144.1,52.9z M157.3,51.5l-11.6-0.6l1.8,1.8c2.3-0.5,6.3-0.1,9.8,0.3V51.5z"/>
	<path class="st1" d="M180.1,42.3c-1.1-0.6-2-1.4-2.7-2.3c-0.5-0.3-1-0.5-1.7-0.8c-9.5-5.1,1.1-18.1,7.3-17.4
		c2.9,0.4,5.2,1.8,6.8,3.7C201.5,29.9,199.7,52.8,180.1,42.3z M199.2,120.2h-17.2c-0.4,0-0.6,0-1-0.3l-4.3-3.1
		c-0.5-0.3-0.6-0.8-0.5-1.1l-1.4-62.8c-0.1-0.8,0.5-1.5,1.3-1.5l16-2.8c0.3,0,0.5,0,0.9,0c0.1,0.1,0.4,0.3,0.5,0.4l4,2.8
		c0.3,0.1,0.4,0.3,0.5,0.4c0.3,0.4,0.3,0.6,0.3,0.9l2.7,65.7C200.8,119.4,200.1,120.3,199.2,120.2z M182.8,24.4
		c-6.1-0.8-9.7,9.1-6.4,12.1c-0.1-4.7,4.7-10.2,8.8-11.4C184.5,24.8,183.7,24.5,182.8,24.4z M179,56.3l-1.8-1.2l1.4,59.4h1.7
		L179,56.3z M191.1,51.4l-12,2l1.4,0.9l10.7-1.8L191.1,51.4z"/>
	<path class="st1" d="M269.9,53.9l-30.3,46.9l15.8-0.3c0.3,0,0.5,0,0.8,0.1l6,2.3c0.5,0.1,0.8,0.5,0.8,1c1.4,2.6,1.8,9.2,0.8,11.9
		c0,0.8-0.6,1.4-1.4,1.3l-49.8,2.3c-0.1,0-0.3,0-0.4,0c-0.4,0-0.6-0.1-0.9-0.3l-5.2-2c-1-0.1-1.4-0.9-0.9-1.9h0.1L234,66.6h-19.8
		c-0.1,0-0.3,0-0.4,0c-0.4,0-0.5-0.1-0.8-0.3l-5.4-2c-0.5-0.1-0.8-0.3-0.9-0.6c-0.1-0.4-0.1-0.6-0.1-1c0.3-2.3,2.7-7.4,5.4-15.2h0.1
		c0.1-0.6,0.6-1,1.4-0.9l49.2,3.1c0.1,0,0.3,0,0.4,0c0.3,0,0.5,0.1,0.6,0.3l5.4,2c1,0.3,1.4,1,0.9,1.9
		C269.9,53.8,269.9,53.9,269.9,53.9z M237,66.6l-28.4,47.9l4.5-0.1l28.2-47.8H237z M214.1,49.4l-4.3,12.3h3.8
		c0.9-2.6,2.4-6.3,4.1-10.9L214.1,49.4z M269.9,53.9v-0.1h0.1L269.9,53.9z"/>
	<path class="st1" d="M338.7,53.9l-30.3,46.9l15.8-0.3c0.3,0,0.5,0,0.8,0.1l6,2.3c0.5,0.1,0.8,0.5,0.8,1c1.4,2.6,1.8,9.2,0.8,11.9
		c0,0.8-0.6,1.4-1.4,1.3l-49.8,2.3c-0.1,0-0.3,0-0.4,0c-0.4,0-0.6-0.1-0.9-0.3l-5.2-2c-1-0.1-1.4-0.9-0.9-1.9h0.1l28.7-48.7H283
		c-0.1,0-0.3,0-0.4,0c-0.4,0-0.5-0.1-0.8-0.3l-5.4-2c-0.5-0.1-0.8-0.3-0.9-0.6c-0.1-0.4-0.1-0.6-0.1-1c0.3-2.3,2.7-7.4,5.4-15.2h0.1
		c0.1-0.6,0.6-1,1.4-0.9l49.2,3.1c0.1,0,0.3,0,0.4,0c0.3,0,0.5,0.1,0.6,0.3l5.4,2c1,0.3,1.4,1,0.9,1.9
		C338.7,53.8,338.7,53.9,338.7,53.9z M305.7,66.6l-28.4,47.9l4.5-0.1L310,66.6H305.7z M282.8,49.4l-4.3,12.3h3.8
		c0.9-2.6,2.4-6.3,4.1-10.9L282.8,49.4z M338.7,53.9v-0.1h0.1L338.7,53.9z"/>
</g>
<g class="st0">
	<path class="st1" d="M380.4,26.7c0,0,0,0.3,0,0.8c0.2,0.2,0.5,0.6,0.9,1.1c-0.2,1.1-0.4,2.2-0.7,3.6c-0.2,0.1-0.3,0.2-0.4,0.3
		c-0.1,0.1-0.9,0.8-2.2,2.1c0.4,1,0.8,1.5,1.3,1.6c0.2,0,0.3,0,0.5-0.1c-0.3,1.5-0.7,3.4-1.3,5.5c-0.1-0.2-0.2-0.4-0.3-0.5
		c-0.6-0.9-1-1.3-1.2-1.3l0,0c-0.3,0-1.5,0.3-3.6,0.8c0.1,1.3,0.5,2,1.2,2.2c1.3,0.3,2.1,0.4,2.6,0.5l0.3,0c0.2,0,0.5-0.1,0.8-0.3
		l-0.9,4.1l-1.1,4.5c-0.9-0.8-1.5-1.6-1.6-2.4l-0.4-0.3c-0.1,1.3,0.3,3.2,1.2,5.7l-3.9,16.7c-0.6,0.7-1.1,1.4-1.6,2.1
		c0.6,0.3,0.9,0.4,1,0.4l0,0l-1.4,6c-0.3,0-0.5-0.1-0.7-0.1c0.1,0.4,0.2,0.8,0.5,1.1l-1.1,4.5l-18.4-2.2l0-4.7
		c0.1-0.2,0.1-0.3,0.1-0.4c0-0.1,0-0.1,0-0.2c0-0.1,0-0.1-0.1-0.2L350,72c0.7,1.2,1.1,1.9,1.3,2.1c0.1,0.2,0.3,0.3,0.4,0.3
		c0.1,0,0.2-0.1,0.3-0.2c0.1-0.2,0.2-0.4,0.2-0.7c0-0.2,0-0.4,0-0.6c0-0.5-0.2-0.8-0.4-0.8c-0.1-0.1-0.3-0.1-0.6-0.1
		c-0.3,0-0.7-0.1-1.3-0.1l0.2-20.4c0.1,0.1,0.1,0.2,0.2,0.2c0.1,0,0.1,0.1,0.2,0.1c0.4,0.1,1.2-0.3,2.4-1.1
		c-0.1-0.3-0.2-0.7-0.3-1.3c-0.1,0.2-0.2,0.5-0.4,0.8c-0.2,0.3-0.3,0.6-0.3,0.7c0.1-0.3,0.1-0.5,0.1-0.7c0.1-1.1-0.1-1.7-0.7-2.1
		c-0.3-0.1-0.7-0.3-1.2-0.4l0.1-3.8l0-0.9l-0.1,0c0,0,0-0.1,0-0.1c0.1,0,0.2,0,0.4,0.1c0.1-0.2,0.2-0.4,0.2-0.4
		c-0.4-0.8-0.5-1.3-0.6-1.3c0.1-3.5,0.1-6.1,0.1-7.8c0.1,0,0.2,0,0.2,0.1c0.1,0.1,0.2,0.1,0.2,0.1c0.3,0,0.7-0.1,1-0.5
		c0.2-0.2,1.1-1.2,2.7-3c-0.1-0.3-0.3-0.9-0.6-1.7c-1.2,1.7-2,3-2.6,3.8l0-0.2c0.1-0.6,0.4-1.3,0.8-2.1c0.6-1,1-1.7,1.2-2.3
		c-0.4,0.2-0.7,0.3-0.7,0.3c-0.7,0.8-1.4,1.4-2.3,2c0.1-1.3,0.1-2.4,0.1-3.5l1.2-2.2l-1.1-0.6l0.1,0c0.1-2.1,0.2-3.8,0.4-5
		c0.2-1.4,0.4-2.6,0.6-3.6c0.1-0.1,0.2-0.2,0.4-0.3c0.1-0.1,0.2-0.1,0.2-0.1c0.1,0,0.3,0.2,0.4,0.5c0.2,0.7,0.5,1,1,1.1
		c0.3,0,0.6,0,0.9-0.2c0.1,0,0.5-0.2,1.2-0.4c-0.2-0.9-0.6-2.3-1.2-4.5c0,2,0,3.2,0,3.6l-0.2,0l-0.1,0l0,0.1l0,0
		c-0.1-1.4-0.1-2.2-0.1-2.3c-0.1-1.2-0.2-2-0.3-2.6c0.6-0.7,1.4-1.2,2.2-1.6c0.1,0.1,0.1,0.2,0.1,0.1c0.2,0.5,0.4,0.7,0.7,0.7
		c0.3,0,0.6-0.1,0.9-0.3c0.3-0.2,0.6-0.6,0.9-1c0.7,0,1.4,0,2.2,0.1c-1.1,1.4-1.9,2.4-2.5,3c-1.1,1.3-1.9,1.9-2.5,1.8
		c-0.1,0-0.2,0-0.2-0.1c0.1,0.5,0.2,1,0.4,1.5c0,0.1,0.1,0.2,0.2,0.3c0.1,0.1,0.2,0.2,0.2,0.3c0.3,1,0.7,1.6,1.2,1.6
		c0.3,0,0.7-0.1,1.2-0.5c0.2-0.2,0.5-0.2,0.8-0.2l0.1,0c1.2,0.2,1.8,1.5,1.7,3.9c0.5-0.8,0.9-1.5,1.2-1.9l0.1,0.1l-1.9-2.4
		c0-0.1,0.1-0.2,0.1-0.2c0-0.1,0-0.2,0.1-0.2c0.5,0.1,0.7,0.2,0.7,0.2c0.4,0.7,1,1.1,1.9,1.2c0.2,0,0.5,0,0.8,0c0.5,0,0.9,0,1.2,0
		c0.4,0.1,0.7,0.2,0.9,0.3c0.1,0.1,0.6,0.7,1.4,2c0.3-1,0.7-1.5,1.2-1.5c0.3,0,0.5,0.2,0.8,0.5c0.3,0.3,0.7,0.9,1.1,1.7
		c0,0,0.1,0.5,0.2,1.3c-0.5,0.1-0.8,0.2-0.9,0.2l0,0c-0.2-0.1-0.5-0.2-0.9-0.4c-0.4-0.2-0.6-0.4-0.8-0.5c0,0-0.4,0-1,0.1
		c0.1,1.2,0.2,1.8,0.3,1.9c0.3,0.3,0.3,0.7,0.3,1.2c0,0.2-0.1,0.3-0.1,0.5c-0.9-0.3-1.5-1.4-1.8-3.4c-0.1-0.7-0.4-1.1-0.9-1.1
		l-0.2,0c-0.3,0-0.7,0.1-1.1,0.1c-0.5,0-0.9,0-1.1,0c0,0-0.2,0.1-0.7,0.3c0.1,0.8,0.1,1.2,0.2,1.2c0.7,0.7,1.2,1.2,1.7,1.4
		c0.8,0.4,1.2,1.2,1.1,2.2c0.7-0.4,1.1-0.6,1.2-0.6c0.4,0.1,0.8,0.6,1.4,1.3c0,0,0.1,0.1,0,0.3c0,0.2-0.1,0.5-0.3,1
		c0,0.1-0.1,0.1-0.2,0.1c-0.1,0-0.2,0-0.3-0.1c-0.2-0.1-0.8-0.3-1.9-0.8c-0.1,0.2-0.1,0.3-0.2,0.4c0.1,0.4,0.2,0.9,0.4,1.6
		c-0.2,0.4-0.4,0.6-0.5,0.7l0,0l0,0.1c-0.2,0.1-0.5,0.2-0.8,0.4c0.3-2.3-0.2-3.9-1.5-4.8c-0.1-0.1-0.7-1-1.7-2.6l0-0.1l0,0.1
		c0.1-0.1,0.3-0.4,0.6-0.9c0,0-0.4-0.1-1-0.3l-0.1,0c-0.3,0-0.5,0.2-0.7,0.8c0,0.1-0.2,1.2-0.4,3.3c0.5-0.1,0.9-0.2,1.4-0.3l0.1-0.4
		c0,0-0.4-0.3-1.2-0.9c0.5-0.4,1-0.8,1.4-1.1l-0.1,0l0.1,0.1c0.1,2,0.3,3.1,0.3,3.3c0.6,2.1,1.2,3.8,1.8,4.9
		c0.1,0.3,0.3,0.5,0.5,0.5c0.2,0,0.3,0,0.5-0.2c0.4-0.3,0.7-0.8,0.8-1.5l0,0l0-0.1c0.2,0.1,0.3,0.1,0.3,0.1c0.2-0.1,0.3-0.1,0.4-0.1
		c0.3,0,0.6,0.4,0.8,1.1l0,0.1c0,0.1-0.2,0.6-0.5,1.5c0,0-0.1,0.4-0.4,1c1-1.2,1.7-1.8,2-1.8l0.1,0c0.3,0,0.9,0.5,1.7,1.5
		c0.1,0.1,0.2,0.2,0.4,0.2c0.1,0,0.3,0,0.5,0l0.6,0.1c0.4,0.1,0.8,0.2,1.1,0.2c0.7,0.1,1.2,0,1.3-0.2c0.5-0.5,0.9-0.8,1.5-0.7
		c0.1,0,0.2,0,0.4,0.1l0.1,0c0.3,0,0.6-0.1,0.8-0.3c0.2-0.2,0.7-1,1.6-2.3l0,0l0-0.1c0.2,0.1,0.4,0.2,0.6,0.4
		c0.3,0.2,0.6,0.3,0.7,0.4c0.5-0.6,0.7-1,0.7-1c0.2-0.3,0.4-0.6,0.4-0.9c0-0.4-0.1-0.6-0.4-0.8c-0.1-0.1-0.9-0.3-2.2-0.6
		c0,0.4,0,0.8,0.1,1.3c0,0.5,0.1,0.9,0.1,1.1l0,0.1c-0.6,0.2-0.9,0.3-0.9,0.3c-0.1-0.5-0.2-0.7-0.4-0.8c0,0-0.1,0-0.2,0
		c-0.1,0-0.2,0.1-0.4,0.2c-0.2,0.1-0.3,0.2-0.4,0.2c0.1,0,0.1,0,0.1,0l0,0.1l-2.5,1c0,0-0.3,0.1-0.9,0.1c0.3-1.2,0.5-1.8,0.5-1.8
		c0.2-0.3,0.8-0.9,1.6-1.8c0.1-0.1,0.3-0.2,0.5-0.2c0.2,0,0.6,0,1.2,0c0.5,0.1,0.9,0.1,1.2,0c0.2,0,0.4-0.1,0.5-0.5
		c0.4-0.9,1.1-1.2,2.1-1.1C380,24.6,380.2,25.3,380.4,26.7z M355.2,22.9c0.5,0.1,1.4,0.5,2.7,1.4c0.1,0.1,0.2,0.1,0.3,0.2
		c0.2,0,0.3-0.1,0.4-0.5c0-0.6,0.2-2.1,0.3-4.4l-5-0.6c-0.1,0.7,0,1.6,0.3,2.5c0.2,0.9,0.5,1.4,0.7,1.4L355.2,22.9z M356.2,38.3
		c0,0,0.4-0.3,1-0.9c0-0.2-0.1-0.4-0.1-0.5l-1,0.5l0-0.1c-0.1-1.7-0.5-2.6-1.1-2.7c-0.2,0-0.5,0.1-0.9,0.3c-0.1,0.1-0.5,0.7-1.1,1.7
		c-0.2,0.4-0.4,0.7-0.4,1.1c0,0.1,0,0.2,0,0.4c0,0.4,0.2,0.6,0.6,0.7l0.1,0C353.9,38.8,354.8,38.6,356.2,38.3z M368.7,101.8
		c0,0.1-0.1,0.2-0.2,0.3c0.1,0.1,0.1,0.3,0.2,0.5c0,0.8-0.1,1.7-0.2,2.7l-0.7,5.4c-0.5,4.5-1.6,7.5-3.1,9c-1.5,1.5-4.1,2-7.6,1.5
		l-5.1-0.6c-3.3-0.4-5.6-1.4-6.7-3c-1.2-1.6-1.6-4.4-1.2-8.3c0.8,0,1.5-0.1,2.1-0.1c-0.2-0.5-0.5-0.8-0.9-0.9
		c-0.4,0-0.8,0.3-1.2,0.9c0-0.5,0.1-0.9,0.1-1.4l0.7-5.4c0.5-4,1.3-6.7,2.5-8.3c1.2-1.6,3.1-2.3,5.8-2.3c0.1,0.1,0.3,0.2,0.4,0.2
		c0.2,0,0.4,0,0.6-0.2c0.4,0,0.8,0,1.3,0.1l5.1,0.6c3.2,0.4,5.3,1.2,6.5,2.6c1.2,1.4,1.8,3.7,1.7,6.8
		C368.7,101.9,368.7,101.9,368.7,101.8z M353.3,42.1c0,0.8,0.1,1.7,0.4,2.7c0.3,0.9,0.6,1.4,0.8,1.4l0.1,0c0.2-0.1,1.1-0.5,2.8-1.4
		c-0.1-0.2-0.2-0.4-0.4-0.6c-0.1-0.2-0.2-0.3-0.2-0.3l-0.4,0.6c-0.6-1.1-0.9-1.7-0.9-1.7C355.5,42.6,354.7,42.4,353.3,42.1z
		 M352.6,66.2c0.4,0.5,0.7,0.8,1.1,0.8c0.2,0,0.4,0,0.6-0.2c-0.2-2.1-0.7-3.3-1.4-3.8c-0.2-0.1-0.3-0.2-0.5-0.2
		c-0.5-0.1-1,0.3-1.6,1c0.7,0.5,1,0.7,1.1,0.8c0.1,0.1,0.2,0.4,0.4,0.8C352.4,65.9,352.5,66.1,352.6,66.2z M358.5,28.9
		c-0.5-0.1-0.9-0.3-1.3-0.6l-0.7,0.1l1.1,4.1c0.3,1.2,0.5,1.9,0.6,2c0.4,0.7,0.8,1.1,1.2,1.2l0.1,0c0.3,0,0.6-0.4,0.8-1.2
		c0-0.2,0.1-0.3,0.1-0.6c0.1-0.6,0.1-1.3-0.1-2.2c-0.1-1.3-0.4-2.1-0.7-2.5c-0.1-0.2-0.3-0.3-0.3-0.3l0,0
		C359,28.9,358.8,28.9,358.5,28.9z M357,58.4c0.1-0.4,0.2-1,0.3-1.6c0-0.4,0.1-0.8,0.1-1.3c0-0.3-0.1-0.5-0.3-0.5
		c-0.1,0-0.2,0-0.3,0c-0.2,0.1-1,0.5-2.4,1.1c0.6,1.7,0.9,2.7,1,2.9c0.2,0.4,0.4,0.6,0.6,0.7c0.1,0,0.1,0,0.2,0
		C356.6,59.5,356.8,59,357,58.4z M354.8,78.4l0.1,0c0.4,0,0.6-0.2,0.7-0.6c0-0.1,0-0.2,0-0.4c0-0.7-0.2-1-0.5-1.1l-0.1,0
		c-0.2,0-1,0.3-2.4,0.8l0,0.7C353.9,78.2,354.6,78.4,354.8,78.4z M361.7,42.9c-0.9,2.2-2.8,4.1-5.5,5.6c0.3,1,0.7,1.5,1.3,1.5
		c0.3,0,0.6-0.1,0.9-0.3c0.4-0.3,0.8-0.4,1.2-0.3c0.2,0,0.4,0.1,0.6,0.2c0.1,0.1,0.2,0.1,0.3,0.1c0.4,0.1,0.7-0.4,0.8-1.3l0-0.1
		c0,0.1,0.2-1.1,0.5-3.6l0.2-1.7C361.9,43,361.8,42.9,361.7,42.9z M366.6,8.8c0.2,0.3,0.4,0.7,0.5,1.3c0,0,0,0.6-0.1,1.7
		c-0.2,0.3-0.5,0.7-0.8,1.3c0,0-0.1,0.1-0.1,0.2c0,0.1-0.1,0.2-0.1,0.2c-0.3-0.4-0.7-0.9-1.2-1.5c0.1-0.2,0.3-0.4,0.6-0.8
		c-1.4,1-2.5,1.8-3.4,2.5l0-0.2c0.2-1.8,1.1-3.3,2.5-4.7c0.1-0.1,0.1-0.1,0.2-0.2L366.6,8.8z M357.9,68.6l-0.1,0
		c-1.1-0.1-1.9,0.3-2.5,1.3c0.8,0.9,1.7,1.5,2.5,1.6c0.7,0.1,1.5-0.2,2.2-0.8C359.7,69.4,359,68.8,357.9,68.6z M356.5,62.6
		c0.3,0.9,0.7,1.4,1.2,1.5c0.3,0,0.5-0.1,0.8-0.4c0.4-0.4,0.6-0.8,0.6-1.3c0-0.4,0-0.8-0.1-1.3C357.9,61.8,357.1,62.3,356.5,62.6z
		 M358.8,84c0.3,0,0.7,0,1-0.2c-0.8-1.8-1.7-2.8-2.8-3c-0.2,0-0.5,0-0.8,0C356.9,82.8,357.8,83.8,358.8,84z M361.7,67
		c0.4,0,0.8-0.2,1.3-0.6c0.1-0.9-0.2-1.5-0.8-1.5l0,0c-0.2,0-0.8-0.2-1.9-0.6C360.5,66,361,66.9,361.7,67z M368.3,10.8
		c0.5,0.1,0.8,0.6,1.1,1.6c0.1,0.2,0.3,1.5,0.9,3.9c-1-0.6-1.6-1.2-1.6-1.8c0-0.4-0.2-0.6-0.5-0.6l-0.2,0c-0.1,0-0.2,0-0.3,0
		c-0.6-0.1-0.9-0.6-0.7-1.6c0-0.2,0.1-0.4,0.1-0.6C367.5,11.1,367.9,10.8,368.3,10.8z M356.8,95.5l-0.1,0.5c1.1,0.7,1.8,1,2.1,1.1
		l0,0c0.1,0,0.2-0.1,0.3-0.3c0.1-0.2,0.2-0.4,0.2-0.5l0-0.1c-0.1-0.7-0.2-1-0.5-1.1C358.7,95.2,358,95.3,356.8,95.5z M364.7,48.1
		c-0.2,0.1-0.9,0.3-2.1,0.8c0.1,1.2,0.6,1.9,1.3,2.1l0.1,0c0.2,0,0.6-0.2,0.9-0.6l0-0.1c0-0.1,0-0.5-0.1-1.1
		C364.9,49.2,364.8,48.9,364.7,48.1z M363.4,61.7c-0.2-2.2-0.3-3.4-0.3-3.6l-2,3C361.8,61.3,362.6,61.5,363.4,61.7z M367.3,38.1
		c-0.8-2.5-1.6-3.7-2.1-3.8l0,0c0.5,4.3,0.8,6.6,0.9,7c0.1,0.9,0.5,1.6,1.2,2c0.2,0.1,0.4,0.2,0.7,0.3c0.4,0,0.8-0.1,1.1-0.5
		c0.2-0.1,0.3-0.4,0.3-0.7l0-0.2c0-0.2,0-0.7-0.1-1.3c0-0.3-0.2-1.5-0.4-3.5C368.1,37.7,367.5,38,367.3,38.1z M362,72.9
		c0.2,0,0.4,0,0.6-0.1c0.3-0.2,0.5-0.5,0.6-0.9c0-0.2,0-0.5-0.1-0.9c0,0-0.7,0.1-2,0.2C361.2,72.3,361.5,72.9,362,72.9z M366.1,79.9
		c-0.7,0-1.1,0-1.2,0c-1,0-1.6-0.1-2-0.1l-0.5-0.1c-0.5-0.1-1,0.1-1.4,0.6c1.4,1.3,2.2,2,2.3,2.1l0.2,0c0.4,0.1,1.1-0.2,2.1-0.6
		C365.7,81.8,365.9,81.2,366.1,79.9z M368,24.1l0-0.2c2.3-0.9,3.6-1.4,3.9-1.4c0.2-0.1,0.4-0.1,0.5-0.1c0.6,0.1,1.1,0.7,1.3,1.8
		c0.1,0.5,0.1,0.9,0.1,1.2c-0.1,0.5-0.3,0.8-0.7,0.9c0,0-0.4,0.4-1.1,1.1c0-0.2,0-0.5,0-0.8c0-0.4,0-0.6,0-0.8
		c-0.6,0.1-0.9,0.2-0.9,0.2c-0.6,0.3-1.2,0.4-1.6,0.3c-0.3,0-0.6-0.2-0.8-0.4C368.2,25.4,368,24.8,368,24.1z M375.2,17.4
		c0.2,0.2,0.4,0.3,0.5,0.4c0.3,0.3,0.5,0.8,0.4,1.4l0,0.2c-1.3-1-1.9-1.9-2-2.7l0,0.2l0-0.1c0-0.2,0.1-1.3,0.1-3.4
		c0,0-0.1-0.5-0.2-1.4c-0.5,0.5-0.7,0.7-0.7,0.7c-0.4,0.4-0.7,0.6-1,0.6c-0.3,0-0.5-0.3-0.7-0.7l0,0.1c-0.1,0-0.4-0.2-0.9-0.6
		c0,0-0.3-0.3-0.8-0.9c0,0,0.1-0.1,0.1-0.2c0-0.1,0.1-0.2,0.1-0.2l1,0.1c0.3-0.6,0.7-1.1,0.9-1.4l3.4,0.4c0.3,0.7,0.4,2,0.4,3.8
		c1.3,1,2,1.5,2.1,1.6c0,0,0.2,0.8,0.4,2.4c-1-0.7-1.5-1.1-1.6-1.3c-0.2-0.2-0.3-0.5-0.3-1.1c0-0.6-0.1-0.8-0.3-0.9
		c-0.1,0-0.3,0.1-0.5,0.4c0.3,0.5,0.4,0.8,0.5,0.9c0,0,0,0.1,0,0.2c0,0.2-0.1,0.3-0.3,0.4c-0.6,0.4-1,0.6-1,0.6l0-0.1
		C374.8,17.1,375,17.2,375.2,17.4z M367.3,52.9c-0.1,0-0.3,0-0.4,0l-0.1,0c-0.2,0-0.4-0.1-0.7-0.3c0,0-0.3-0.2-0.7-0.7
		c-0.1,0.2-0.2,0.3-0.2,0.3c0.1,0.8,0.1,1.2,0.1,1.3c0.1,1.2,0.4,2,0.7,2.2c0.1,0.1,0.7,0.2,1.6,0.4c0.4,0,0.6-0.2,0.7-0.8
		c0-0.2,0-0.4,0-0.7C368.4,53.6,368,53,367.3,52.9z M368.9,69.8c0,0,0.3-0.1,0.9-0.3c-0.3-1.4-0.7-2.1-1.3-2.1c-0.3,0-0.6,0-0.9,0.2
		c-0.1,0.1-1,0.8-2.6,2c0.2,1.2,0.6,1.8,1.1,1.9c0.4,0,0.9-0.2,1.5-0.9C367.6,70.5,368.1,70.2,368.9,69.8z M380.8,22.7
		c0.4,0,0.9,0.2,1.4,0.4c-0.1,0.7-0.2,1.6-0.4,2.7c-0.2-0.1-0.3-0.3-0.4-0.4l-1-1.4c-0.3-0.3-0.5-0.5-0.8-0.5c-0.2,0-0.4,0-0.6,0.1
		l-0.2-0.3c-0.3-0.5-0.8-0.8-1.4-0.9c-0.3,0-0.6,0-1,0.1c-0.7,0.2-1.3,0.2-1.9,0.1c-0.3,0-0.5-0.1-0.7-0.2c-0.1,0-0.6-0.5-1.6-1.6
		c0-0.1,0-0.2,0.1-0.3c0.1-0.1,0.1-0.2,0.1-0.2c0.2,0.1,0.5,0.3,0.9,0.5c0.4,0.3,0.7,0.5,0.9,0.6c0.5-0.7,0.7-1,0.8-1
		c0.1-0.1,0.5-0.5,1.2-1.1c0.5-0.5,0.9-0.7,1.2-0.6c0.4,0,0.7,0.3,0.9,0.9C379.1,21.5,379.9,22.5,380.8,22.7z M369.7,44.1l0,0.2
		c-0.2,1.3,0,2,0.6,2c0.2,0,0.4,0,0.6-0.1c0.1,0,0.7-0.3,1.9-0.8c0.1-1.2-0.1-1.8-0.6-1.9c-0.1,0-0.2,0-0.4,0
		C371.6,43.6,370.9,43.7,369.7,44.1z M372.6,52.3c-0.5-0.6-0.7-0.9-0.8-0.9c-0.2,0.1-0.4,0.1-0.6,0.1c-0.7-0.1-1.3-0.7-1.8-1.9
		l-0.3,0.3c0.5,2.1,0.7,3.3,0.8,3.4c0.2,0.7,0.5,1.1,0.8,1.2c0.3,0,0.7-0.3,1.1-0.9C371.9,53.5,372.1,53.1,372.6,52.3z M371.9,37.4
		c0.3,0.2,0.6,0.4,0.9,0.4c0.7,0.1,1.4-0.5,2.1-1.9c-0.1-0.2-0.2-0.4-0.3-0.6c-0.2-0.3-0.3-0.5-0.3-0.6c-1.2,0.4-1.9,0.6-2,0.6
		c0,0-0.3,0.1-0.9,0.4C371.6,36.9,371.8,37.4,371.9,37.4z M370.2,57.9c0.4,0.7,0.6,1.1,0.6,1.1l0,0l1.2,1c0.4,0.3,0.7,0.5,0.9,0.5
		c0.1,0,0.3,0,0.3-0.1c0.3-0.2,0.6-0.8,0.9-1.8c0.1-0.2,0.1-0.4,0.1-0.5c0.1-0.5-0.1-0.7-0.4-0.8c-0.1,0-0.1,0-0.2,0
		C373.4,57.4,372.2,57.6,370.2,57.9z M376.5,34.1c0.4,0,0.8-0.2,1.4-0.8c-0.2-0.7-0.5-1.1-1.1-1.1c-0.3,0-0.7,0-1.2,0.2
		C375.8,33.5,376,34.1,376.5,34.1z M378.9,10.7c1.8,0.8,2.9,2.1,3.4,4.1c-0.1,0-0.2,0.1-0.3,0.3l0,0c0,0-0.2-0.1-0.5-0.4
		c-0.1,0.6-0.3,0.9-0.5,0.9c-0.1,0-0.3-0.2-0.5-0.5c-0.3-0.5-0.9-1.1-1.6-1.8c-0.4-0.4-0.6-0.8-0.5-1.3c0-0.3,0.2-0.6,0.5-1
		C378.7,11,378.8,10.9,378.9,10.7z"/>
</g>
</svg>
